<svg width="61" height="66" viewBox="0 0 61 66" fill="none" xmlns="http://www.w3.org/2000/svg">
<path d="M60.6955 12.1381C47.5738 8.09398 31.7172 0.423344 30.5661 0.00386164C30.5569 0.00051764 30.5523 -0.00115436 30.5094 0.000894968C30.4665 0.00294429 30.4577 0.00717118 30.4399 0.015625C29.3422 0.539324 13.4118 8.10049 0.304478 12.1381C0.150832 12.1855 0.0740088 12.2091 0.0323446 12.2699C-0.00931972 12.3307 -0.00314258 12.4125 0.00921171 12.5762C2.36135 43.7439 14.709 55.0706 30.2567 65.8773C30.3743 65.9591 30.4332 66 30.5 66C30.5668 66 30.6257 65.9591 30.7433 65.8773C46.291 55.0706 58.6386 43.7439 60.9908 12.5762C61.0031 12.4125 61.0093 12.3307 60.9677 12.2699C60.926 12.2092 60.8492 12.1855 60.6955 12.1381Z" fill="white"/>
<path d="M56.0359 16.5017C54.5894 35.9413 47.3146 47.1054 31.2417 60.366C36.8015 33.8074 37.1479 20.7579 20.7518 23.0235C22.1318 18.136 25.4636 16.1021 30.394 16.5017C37.277 8.20479 42.8198 8.01738 56.0359 16.5017Z" fill="#374957"/>
<path d="M33.2594 17.0845C35.7625 15.2225 36.4984 14.9669 40.0047 15.417C37.8588 17.5547 36.9835 17.6112 33.2594 17.0845Z" fill="white"/>
</svg>
